<svg xmlns="http://www.w3.org/2000/svg" viewBox="0 0 64 64">
  <defs>
    <linearGradient id="g" x1="0%" y1="0%" x2="100%" y2="100%">
      <stop offset="0%" stop-color="#2d8a65"/>
      <stop offset="100%" stop-color="#c9823e"/>
    </linearGradient>
  </defs>
  <rect width="64" height="64" rx="18" fill="#18352b"/>
  <rect x="8" y="8" width="48" height="48" rx="14" fill="url(#g)"/>
  <path d="M20 24h24c1.7 0 3 1.3 3 3v3c0 6.6-5.4 12-12 12h-6c-6.6 0-12-5.4-12-12v-3c0-1.7 1.3-3 3-3Z" fill="#fff7ee"/>
  <path d="M24 22c0-4.4 3.6-8 8-8s8 3.6 8 8" fill="none" stroke="#fff7ee" stroke-width="4" stroke-linecap="round"/>
  <circle cx="26" cy="31" r="2" fill="#18352b"/>
  <circle cx="32" cy="34" r="2" fill="#18352b"/>
  <circle cx="38" cy="30" r="2" fill="#18352b"/>
</svg>
